# xmcd
#
# Track frame offsets: 
#        150
#        15261
#        29966
#        44540
#        64381
#        80674
#        97247
#        110153
#        126071
#        144134
#        158034
#        172199
#        189302
#        207679
#
# Disc length: 2975 seconds
#
# Revision: 0
# Processed by: cddbd v1.5.1PL2 Copyright (c) Steve Scherf et al.
# Submitted via: ExactAudioCopy v0.95a3
#
DISCID=d10b9d0e
DTITLE=João Pedro and Cristiano - Viola Cigana
DYEAR=2001
DGENRE=Sertanejo
TTITLE0=Vida Cigana
TTITLE1=O Vagabundo
TTITLE2=Dia Branco
TTITLE3=Medida Exata
TTITLE4=Anjo Moreno
TTITLE5=Lembrança De Um Beijo
TTITLE6=Louco De Paixão
TTITLE7=Pensamento
TTITLE8=Onde Anda Você
TTITLE9=Minha Vida É Você
TTITLE10=Pé Direito, Pé Esquerdo
TTITLE11=Pra Gente Se Amar
TTITLE12=Pressentimento
TTITLE13=Volta De Uma Vez
EXTD=
EXTT0=
EXTT1=
EXTT2=
EXTT3=
EXTT4=
EXTT5=
EXTT6=
EXTT7=
EXTT8=
EXTT9=
EXTT10=
EXTT11=
EXTT12=
EXTT13=
PLAYORDER=
